<?xml version="1.0" encoding="iso-8859-1"?>
<!-- Generator: Adobe Illustrator 19.0.0, SVG Export Plug-In . SVG Version: 6.00 Build 0)  -->
<svg version="1.1" id="Layer_1" xmlns="http://www.w3.org/2000/svg" xmlns:xlink="http://www.w3.org/1999/xlink" x="0px" y="0px"
	 viewBox="0 0 512 512" style="enable-background:new 0 0 512 512;" xml:space="preserve">
<g>
	<g>
		<g>
			<path d="M503.467,0H8.533C3.814,0,0,3.823,0,8.533v494.933C0,508.177,3.814,512,8.533,512h494.933
				c4.719,0,8.533-3.823,8.533-8.533V8.533C512,3.823,508.186,0,503.467,0z M494.933,494.933H17.067V17.067h477.867V494.933z"/>
			<path d="M392.533,452.267c-32.93,0-59.733-26.795-59.733-59.733c0-4.71-3.814-8.533-8.533-8.533
				c-4.719,0-8.533,3.823-8.533,8.533c0,42.342,34.449,76.8,76.8,76.8c42.351,0,76.8-34.458,76.8-76.8
				c0-42.342-34.449-76.8-76.8-76.8c-32.93,0-59.733-26.795-59.733-59.733s26.803-59.733,59.733-59.733
				c32.93,0,59.733,26.795,59.733,59.733c0,4.71,3.814,8.533,8.533,8.533c4.719,0,8.533-3.823,8.533-8.533
				c0-42.342-34.449-76.8-76.8-76.8c-42.351,0-76.8,34.458-76.8,76.8s34.449,76.8,76.8,76.8c32.93,0,59.733,26.795,59.733,59.733
				C452.267,425.472,425.464,452.267,392.533,452.267z"/>
			<path d="M213.333,469.333c42.351,0,76.8-34.458,76.8-76.8v-204.8c0-4.71-3.814-8.533-8.533-8.533
				c-4.719,0-8.533,3.823-8.533,8.533v204.8c0,32.939-26.803,59.733-59.733,59.733c-32.93,0-59.733-26.795-59.733-59.733
				c0-4.71-3.814-8.533-8.533-8.533s-8.533,3.823-8.533,8.533C136.533,434.876,170.982,469.333,213.333,469.333z"/>
		</g>
	</g>
</g>
<g>
</g>
<g>
</g>
<g>
</g>
<g>
</g>
<g>
</g>
<g>
</g>
<g>
</g>
<g>
</g>
<g>
</g>
<g>
</g>
<g>
</g>
<g>
</g>
<g>
</g>
<g>
</g>
<g>
</g>
</svg>
